<?xml version="1.0" encoding="UTF-8"?>
<svg id="Layer_1" xmlns="http://www.w3.org/2000/svg" version="1.1" viewBox="0 0 32 32">
  <!-- Generator: Adobe Illustrator 29.4.0, SVG Export Plug-In . SVG Version: 2.1.0 Build 152)  -->
  <defs>
    <style>
      .st0 {
        fill: #fff;
      }
    </style>
  </defs>
  <path class="st0" d="M18.72,31.07c-8.31,0-15.07-6.76-15.07-15.07S10.41.93,18.72.93c5.27,0,10.07,2.68,12.84,7.17.87,1.4.43,3.25-.97,4.11-1.41.87-3.25.43-4.11-.97-1.67-2.71-4.57-4.33-7.75-4.33-5.01,0-9.1,4.08-9.1,9.1s4.08,9.1,9.1,9.1c2.89,0,5.64-1.4,7.35-3.73.97-1.33,2.85-1.62,4.18-.65,1.33.97,1.62,2.85.65,4.18-2.83,3.87-7.38,6.18-12.17,6.18Z"/>
  <path class="st0" d="M19.43,18.99H2.99C1.34,18.99,0,17.65,0,16s1.34-2.99,2.99-2.99h16.44c1.65,0,2.99,1.34,2.99,2.99s-1.34,2.99-2.99,2.99Z"/>
</svg>