<?xml version="1.0" encoding="UTF-8"?>
<svg id="Layer_1" xmlns="http://www.w3.org/2000/svg" version="1.1" viewBox="0 0 100 40">
  <!-- Generator: Adobe Illustrator 29.4.0, SVG Export Plug-In . SVG Version: 2.1.0 Build 152)  -->
  <path d="M38.75.17c7.25-.52,15.03.33,22.33-.03,5.16.32,8.45,3.6,8.77,8.77.44,7.2-.33,14.84,0,22.09-.3,5.21-3.55,8.53-8.77,8.86-7.2.45-14.84-.34-22.09,0-5.25-.31-8.56-3.6-8.86-8.86.32-7.23-.41-14.81,0-22,.29-5.14,3.46-8.46,8.61-8.83ZM46.29,25.38c.02-.13-.01-.25-.04-.38-.37-1.68-1.4-4.18-2-5.89-.28-.79-.54-1.73-.86-2.48-1.29-3.07-5.28-2.92-6.38.16l-2.87,8.59h3.8l.45-1.52c.1-.15,3.11-.01,3.57-.04.33.11.36,1.3.66,1.56h3.67ZM50.63,14.46c-6.44.72-6.67,9.97-.19,11.08,3.5.6,6.88-1.51,7.08-5.21.21-4.04-3.1-6.3-6.89-5.87ZM61.87,14.71h-3.48s-.14.13-.14.14v8.07c0,.94,1.41,2.46,2.37,2.46h5.24v-3.06h-3.85s-.14-.13-.14-.14v-7.47Z" fill="#fed227"/>
  <path d="M50.63,14.46c3.79-.43,7.11,1.83,6.89,5.87-.2,3.71-3.58,5.81-7.08,5.21-6.48-1.11-6.25-10.36.19-11.08ZM51.18,17.7c-2.3.39-2.15,4.23,0,4.59,3.34.57,3.37-5.17,0-4.59Z" fill="#13171c"/>
  <path d="M46.29,25.38h-3.67c-.3-.26-.33-1.45-.66-1.56-.45.03-3.47-.11-3.57.04l-.45,1.52h-3.8l2.87-8.59c1.1-3.08,5.09-3.23,6.38-.16.32.75.58,1.69.86,2.48.6,1.71,1.63,4.21,2,5.89.03.13.06.25.04.38ZM41.18,21.11c-.29-.83-.47-1.96-.83-2.74-.04-.09-.06-.22-.19-.23l-.84,2.97h1.86Z" fill="#13171c"/>
  <path d="M61.87,14.71v7.47s.13.14.14.14h3.85v3.06h-5.24c-.96,0-2.37-1.52-2.37-2.46v-8.07s.13-.14.14-.14h3.48Z" fill="#13171c"/>
  <path d="M51.18,17.7c3.37-.57,3.34,5.16,0,4.59-2.15-.36-2.3-4.2,0-4.59Z" fill="#fed227"/>
  <path d="M41.18,21.11h-1.86l.84-2.97c.13.01.15.14.19.23.36.78.54,1.91.83,2.74Z" fill="#fed227"/>
</svg>