<?xml version="1.0" encoding="UTF-8"?>
<svg id="Layer_1" xmlns="http://www.w3.org/2000/svg" version="1.1" viewBox="0 0 100 40">
  <!-- Generator: Adobe Illustrator 29.4.0, SVG Export Plug-In . SVG Version: 2.1.0 Build 152)  -->
  <path d="M17.1,30.6c-.97,0-1.93-.26-2.8-.76-1.3-.75-2.23-1.96-2.62-3.41-.39-1.45-.19-2.96.56-4.26l6.82-11.81c.54-.93,1.73-1.25,2.66-.71.93.54,1.25,1.73.71,2.66l-6.82,11.81c-.23.4-.29.86-.17,1.31.12.44.4.81.8,1.04.4.23.86.29,1.31.17.44-.12.81-.4,1.04-.8l4.47-7.74c.54-.93,1.73-1.25,2.66-.71.93.54,1.25,1.73.71,2.66l-4.47,7.74c-.75,1.3-1.96,2.23-3.41,2.62-.48.13-.97.19-1.46.19Z" fill="#49a7dc"/>
  <path d="M9.78,30.6c-.49,0-.98-.06-1.46-.19-1.45-.39-2.66-1.32-3.41-2.62L.44,20.05c-.54-.93-.22-2.12.71-2.66.93-.54,2.12-.22,2.66.71l4.47,7.74c.23.4.6.68,1.04.8.44.12.91.06,1.31-.17.4-.23.68-.6.8-1.04.12-.44.06-.91-.17-1.31l-6.82-11.81c-.54-.93-.22-2.12.71-2.66.93-.54,2.12-.22,2.66.71l6.82,11.81c.75,1.3.95,2.81.56,4.26-.39,1.45-1.32,2.66-2.62,3.41-.87.5-1.83.75-2.8.76Z" fill="#49a7dc"/>
  <g>
    <path d="M34.85,15.06h2.56v1.43c.92-1.11,2.01-1.67,3.27-1.67.67,0,1.25.14,1.75.41.49.28.9.69,1.22,1.25.46-.56.96-.98,1.49-1.25.53-.28,1.1-.41,1.71-.41.77,0,1.42.16,1.96.47.53.31.93.77,1.2,1.38.19.45.29,1.17.29,2.17v6.71h-2.78v-6c0-1.04-.1-1.71-.29-2.02-.26-.4-.65-.59-1.19-.59-.39,0-.75.12-1.1.36-.34.24-.59.58-.74,1.04-.15.46-.23,1.18-.23,2.17v5.04h-2.78v-5.75c0-1.02-.05-1.68-.15-1.98-.1-.3-.25-.52-.46-.66-.21-.14-.49-.22-.84-.22-.43,0-.81.12-1.16.35-.34.23-.59.56-.74,1-.15.43-.22,1.16-.22,2.16v5.1h-2.78v-10.49Z" fill="#747577"/>
    <path d="M65.15,25.55l-4.23-10.49h2.91l1.98,5.35.57,1.79c.15-.45.25-.75.29-.9.09-.3.19-.59.3-.89l2-5.35h2.85l-4.17,10.49h-2.5Z" fill="#747577"/>
    <rect x="73.48" y="15.06" width="2.78" height="10.49" fill="#747577"/>
    <path d="M81.06,18.26l-2.52-.45c.28-1.01.77-1.76,1.46-2.25.69-.49,1.72-.73,3.08-.73,1.24,0,2.16.15,2.77.44.61.29,1.03.67,1.28,1.12.25.45.37,1.28.37,2.48l-.03,3.24c0,.92.04,1.6.13,2.04.09.44.26.91.5,1.41h-2.75c-.07-.18-.16-.46-.27-.82-.05-.16-.08-.27-.1-.33-.47.46-.98.81-1.52,1.04-.54.23-1.12.35-1.73.35-1.08,0-1.93-.29-2.55-.88-.62-.59-.93-1.33-.93-2.22,0-.59.14-1.12.42-1.59.28-.46.68-.82,1.19-1.07.51-.25,1.25-.46,2.21-.65,1.3-.24,2.2-.47,2.7-.68v-.28c0-.53-.13-.91-.4-1.14-.26-.23-.76-.34-1.49-.34-.49,0-.88.1-1.16.29-.28.19-.5.54-.67,1.02ZM84.77,20.51c-.36.12-.92.26-1.69.42-.77.16-1.27.33-1.51.48-.36.26-.54.58-.54.98s.14.72.43,1.01c.29.28.66.42,1.11.42.5,0,.98-.16,1.43-.49.34-.25.56-.56.66-.92.07-.24.11-.69.11-1.35v-.55Z" fill="#747577"/>
    <path d="M99.83,25.55h-2.78v-5.35c0-1.13-.06-1.87-.18-2.2-.12-.33-.31-.59-.58-.78-.27-.18-.59-.28-.96-.28-.48,0-.91.13-1.29.4-.38.26-.64.61-.79,1.05-.14.43-.21,1.24-.21,2.41v4.75h-2.78v-10.49h2.58v1.54c.92-1.19,2.07-1.78,3.46-1.78.61,0,1.17.11,1.68.33.51.22.89.5,1.15.84.26.34.44.73.54,1.17.1.43.15,1.06.15,1.87v6.52Z" fill="#747577"/>
    <path d="M53.07,25.55v-10.47h2.75v1.41c.76-.91,2.04-1.67,3.34-1.67v2.69c-.2-.04-.43-.06-.76-.06-.91,0-2.12.52-2.58,1.19v6.91h-2.75Z" fill="#747577"/>
  </g>
</svg>