<?xml version="1.0" encoding="UTF-8"?>
<svg id="Layer_1" xmlns="http://www.w3.org/2000/svg" version="1.1" viewBox="0 0 100 40">
  <!-- Generator: Adobe Illustrator 29.4.0, SVG Export Plug-In . SVG Version: 2.1.0 Build 152)  -->
  <path d="M29.66,18.13h-2.83s-.27-.5-.61-.68c-1.32-.72-3.32.38-1.87,1.62,2.2.56,5.56.69,5.48,3.77-.11,4.49-8.58,4.46-9,.13h2.92s.12.33.25.46c.67.7,2.61.9,3.04-.13.21-.5.01-.97-.48-1.18-1.79-.76-4.66-.27-5.33-2.75-1.39-5.09,7.64-5.82,8.44-1.23Z" fill="#0e76a8"/>
  <path d="M47.58,25.96h-2.5v-4.62c0-.15-.33-.84-.46-.96-.53-.5-1.5-.41-2.01.08-.22.21-.54.93-.54,1.21v4.29h-2.46s-.12-.12-.12-.12v-7.75s.12-.12.12-.12h2.46s-.03.66,0,.75c1.46-1.47,4.27-1.3,5.18.69.06.13.32.86.32.93v5.62Z" fill="#0e76a8"/>
  <polygon points="63.5 17.96 65.29 22.46 67.37 17.96 70.08 17.96 65.5 28.63 62.75 28.63 63.98 25.61 60.78 18.22 60.75 17.96 63.5 17.96" fill="#0e76a8"/>
  <path d="M51.83,15.3v2.67h2.21s.12.12.12.12v1.83s-.12.12-.12.12h-2.21v3.12c0,.06.15.31.2.38.47.59,1.36.3,1.96.08v2.21c0,.17-1.33.38-1.54.38-1.47.01-3.21-.99-3.21-2.63v-3.54c-.25-.05-.9.08-1.09-.04-.07-.05-.32-.88-.43-1.07-.19-.36-.5-.65-.74-.97h2.25v-2.67h2.58Z" fill="#0e76a8"/>
  <path d="M57.58,17.96v1.33c.3-.07.46-.44.71-.67s1.1-.76,1.41-.66c.17.06.87,2.07,1.05,2.37.02.17-.01.11-.12.12-1.2.17-2.25.08-2.77,1.48-.1.26-.27.98-.27,1.23v2.79h-2.5v-8h2.5Z" fill="#0e76a8"/>
  <path d="M38.75,21.17c0-.12-.21-.73-.27-.9-1.63-4.32-8.64-2.89-7.96,2.46.51,4.05,6.66,4.78,8.06.98h-2.62s-.48.35-.77.4c-1.14.19-1.97-.37-2.19-1.48h5.75v-1.46ZM33.08,21.05c.4-1.57,2.79-1.67,3.17,0h-3.17Z" fill="#0e76a8"/>
  <polygon points="92.58 17.96 94.45 22.46 96.45 17.96 99.16 17.96 94.58 28.63 91.83 28.63 93.07 25.61 89.87 18.22 89.83 17.96 92.58 17.96" fill="#0e76a8"/>
  <path d="M77.92,20.54l.96-.57c1.63-2.21.19-4.5-2.42-4.67-1.83-.13-3.79.09-5.63,0v10.66h6.13c.48,0,1.47-.41,1.87-.71,1.62-1.27,1.34-4.43-.91-4.71ZM73.5,17.46h2.62c.49,0,.89.67.89,1.13-.01.46-.52,1.12-.97,1.12h-2.54v-2.25ZM76.95,23.37c-.08.12-.48.43-.58.43h-2.87v-2.25h2.87c.1,0,.5.3.58.42.31.41.31,1,0,1.4Z" fill="#0e76a8"/>
  <path d="M86.75,17.96s.02.51,0,.59l-1.12-.59c-3.49-1.08-5.98,2.07-5.07,5.4.62,2.29,3.22,3.48,5.38,2.5.31-.14.5-.37.81-.48.02.11-.03.55,0,.58.09.09,2.17-.06,2.5,0v-8h-2.5ZM84.79,24.04c-2.45.02-2.57-4.05-.08-4.11,2.65-.08,2.59,4.1.08,4.11Z" fill="#0e76a8"/>
  <path d="M16.89,14.86c-.05-.25-.32-1.43-.47-1.52-2.75-.15-5.41-1.31-7.45-3.12-1.97,1.86-4.69,2.93-7.39,3.12-1.84,5-.12,10.56,3.8,14.04.48.42,3.17,2.44,3.65,2.4.28-.03,1.94-1.14,2.28-1.38,4.41-3.16,6.62-8.11,5.58-13.54ZM10.83,25.59c-.34.3-1.31,1.07-1.69,1.23-.13.05-.16.08-.3.02-.3-.12-1.38-.99-1.68-1.25-2.89-2.54-4.28-6.11-3.65-9.95,1.95-.33,3.76-1.17,5.45-2.17,1.73.96,3.55,1.85,5.53,2.16.57,3.89-.72,7.4-3.66,9.96Z" fill="#0e76a8"/>
  <g>
    <path d="M97.31,27.29c-.58,0-1.05-.47-1.05-1.05s.47-1.05,1.05-1.05,1.05.47,1.05,1.05-.47,1.05-1.05,1.05ZM97.31,25.39c-.47,0-.85.38-.85.85s.38.85.85.85.85-.38.85-.85-.38-.85-.85-.85Z" fill="#0e76a8"/>
    <path d="M97.76,26.8h-.28l-.15-.28s-.05-.08-.07-.1-.05-.04-.09-.04h-.07v.42h-.25v-1.13h.4c.14,0,.24.03.31.08s.1.13.1.24c0,.08-.02.14-.07.19s-.1.09-.18.12h0s.06.04.09.07.05.07.07.1l.19.33ZM97.1,25.86v.33h.12c.06,0,.1-.02.13-.05s.05-.08.05-.13-.01-.09-.04-.12-.08-.04-.14-.04h-.12Z" fill="#0e76a8"/>
  </g>
</svg>