<?xml version="1.0" encoding="UTF-8"?>
<svg id="Layer_1" xmlns="http://www.w3.org/2000/svg" version="1.1" viewBox="0 0 100 40">
  <!-- Generator: Adobe Illustrator 29.4.0, SVG Export Plug-In . SVG Version: 2.1.0 Build 152)  -->
  <path d="M11.67,9.76h4.02c.89,3.01,2.08,6.02,3.96,8.55,1.57-5.69,8.1-8.38,12.88-4.46,7.11,5.82.49,17.16-8.67,13.57-.66-.26-1.24-.66-1.89-.94l-1.82,8.29h-4.08l2.4-11.37c-.02-.47-1.12-1.8-1.44-2.34l-1.33-2.38v3.33c0,.24-.41,1.42-.53,1.73-2.33,5.82-10.58,6.66-13.89,1.26-.37-.61-1.16-2.33-1.16-2.99v-12.25h3.96s.19.18.19.19v11.06c0,1.56,2.24,2.98,3.71,2.96,1.56-.02,3.71-1.58,3.71-3.21v-11ZM23.01,22.3c.08.13,1.41.95,1.65,1.05,2.5,1.12,5.82.87,6.69-2.16,1.33-4.67-5.62-7.56-7.67-2.26-.17.44-.81,3.12-.67,3.37Z" fill="#3aa308"/>
  <polygon points="39.07 12.52 41.96 22.58 44.35 12.53 47.75 12.58 50.31 22.7 53.2 12.52 56.53 12.52 52.14 27.55 48.76 27.59 45.98 17.42 43.45 27.59 40.13 27.61 35.67 12.52 39.07 12.52"/>
  <path d="M89.59,5.23v11.81c2.68.3,5.06-1.83,5.03-4.52h3.52c-.03,2.8-1.41,5.03-3.6,6.64-.19.14-.49.06-.42.33l5.78,8.11h-4.15l-4.71-6.54c-.38-.49-.85-.56-1.45-.5v7.04h-3.39V5.23h3.39Z"/>
  <path d="M63.8,12.06c5.85-.55,10.45,5.1,8.45,10.71s-8.85,7.06-13.07,3.14c-4.98-4.62-2.09-13.22,4.63-13.85ZM64.05,15.32c-5.96.7-5.18,10.14,1.33,9.38,5.92-.69,5.04-10.12-1.33-9.38Z"/>
  <path d="M78.4,12.52v2.14c1.05-1.15,2.34-2.03,3.95-2.14.26-.02,1.58-.07,1.58.19v3.2h-1.95c-1.21,0-3.58,1.98-3.58,3.2v8.48h-3.52v-15.08h3.52Z"/>
</svg>